inDegrees=no
num_controls=7
num_derivatives=13
num_iterations=122
num_multipliers=7
num_parameters=0
num_slacks=7
num_states=26
objective=5.406879
objective_accelerations=0.675827
objective_balance=0.133220
objective_effort=0.485291
objective_height=4.049702
objective_ligament=0.062840
solver_duration=1301.859981
status=Solve_Succeeded
success=true
DataType=double
version=3
OpenSimVersion=4.4-2022-07-23-0e9fedc
endheader
time	/jointset/ground_pelvis/pelvis_tilt/value	/jointset/ground_pelvis/pelvis_tx/value	/jointset/ground_pelvis/pelvis_ty/value	/jointset/hip_l/hip_flexion_l/value	/jointset/hip_l/hip_adduction_l/value	/jointset/hip_l/hip_rotation_l/value	/jointset/back/lumbar_extension/value	/jointset/patellofemoral_l/patellar_flexion_l/value	/jointset/knee_l/knee_flexion_l/value	/jointset/knee_l/knee_adduction_l/value	/jointset/knee_l/knee_rotation_l/value	/jointset/ankle_l/ankle_angle_l/value	/jointset/subtalar_l/subtalar_angle_l/value	/jointset/ground_pelvis/pelvis_tilt/speed	/jointset/ground_pelvis/pelvis_tx/speed	/jointset/ground_pelvis/pelvis_ty/speed	/jointset/hip_l/hip_flexion_l/speed	/jointset/hip_l/hip_adduction_l/speed	/jointset/hip_l/hip_rotation_l/speed	/jointset/back/lumbar_extension/speed	/jointset/patellofemoral_l/patellar_flexion_l/speed	/jointset/knee_l/knee_flexion_l/speed	/jointset/knee_l/knee_adduction_l/speed	/jointset/knee_l/knee_rotation_l/speed	/jointset/ankle_l/ankle_angle_l/speed	/jointset/subtalar_l/subtalar_angle_l/speed	/forceset/tau_hip_flexion_l	/forceset/tau_hip_adduction_l	/forceset/tau_hip_rotation_l	/forceset/tau_knee_flexion_l	/forceset/tau_ankle_angle_l	/forceset/tau_subtalar_angle_l	/forceset/tau_lumbar_extension	lambda_cid13_p0	lambda_cid13_p1	lambda_cid13_p2	lambda_cid13_p3	lambda_cid13_p4	lambda_cid13_p5	lambda_cid14_p0	/jointset/ground_pelvis/pelvis_tilt/accel	/jointset/ground_pelvis/pelvis_tx/accel	/jointset/ground_pelvis/pelvis_ty/accel	/jointset/hip_l/hip_flexion_l/accel	/jointset/hip_l/hip_adduction_l/accel	/jointset/hip_l/hip_rotation_l/accel	/jointset/back/lumbar_extension/accel	/jointset/patellofemoral_l/patellar_flexion_l/accel	/jointset/knee_l/knee_flexion_l/accel	/jointset/knee_l/knee_adduction_l/accel	/jointset/knee_l/knee_rotation_l/accel	/jointset/ankle_l/ankle_angle_l/accel	/jointset/subtalar_l/subtalar_angle_l/accel	gamma_cid13_p0	gamma_cid13_p1	gamma_cid13_p2	gamma_cid13_p3	gamma_cid13_p4	gamma_cid13_p5	gamma_cid14_p0
1.5	-0.3189715315420168	-0.0364957838304032	0.6792754892272582	1.429459054263297	-0.2478425699401764	-0.01436552753745344	-0.3871992763882827	1.201131049068872	1.201131049068869	0.03351713393107122	0.1745303634681643	0.3068630053988492	0.08595430094020681	0.2343118559758799	0.07709349790105979	0.8379389937955775	-2.555837549899974	-0.05682795723236024	-0.3846113786070775	0.4802865283996903	-2.924468777749078	-2.924468777749247	-0.4977779499873381	2.371565026813186e-06	-0.7537247445738691	-0.2962175673017109	-0.2268546625362518	0.003308942135962263	-0.01191091670467658	-0.3269891177480773	0.07383346923372815	0.03049444682758596	0.2281998652176536	-14.71590553362515	-8.96250163030264	-0.9206007959728157	-2.160659533430251	-626.2893246605436	-65.04998506121468	-0.6643019484314944	1.542450918950636	0.9934926128692568	-0.285934656635057	-2.897331893700572	-0.2611421120113047	-1.098523088389468	2.670176860693214	-3.111399952218218	-3.111399952218216	-0.4962080925972789	-0.08898761918056822	-2.037510859029401	-0.5251716847186851	-2.93920558104172e-07	5.322073487245038e-06	4.14624052017292e-06	9.528660458690156e-07	2.896176705232114e-07	5.056374362952752e-06	-5.175245352695092e-08
1.51	-0.3165519604473719	-0.0356750892602534	0.6876384196403806	1.403758916768782	-0.2484248173585871	-0.0182730441572478	-0.3822632431191306	1.171733959081021	1.171733959081087	0.02851844899513488	0.1745304928888395	0.2992246255088651	0.08296523997001433	0.2495324343372891	0.08705508716789691	0.8344239178437641	-2.583854237345468	-0.0595967061310821	-0.3969299811699197	0.5069085687367673	-2.954545155169826	-2.954545155169988	-0.501923931181454	1.849742402743963e-05	-0.7738077493719303	-0.3014816286019392	-0.2204129027223891	0.002860831594414108	-0.01123277121379066	-0.3195849955383732	0.07562721328600472	0.03033936005622705	0.2224320257177186	-13.64613483392648	-9.288997012772494	-0.6326262953623881	-2.80643967042736	-618.1746691293196	-64.72689504627135	-1.292180277029344	1.501358005102804	0.9991432425860817	-0.4177043846306998	-2.703498228467069	-0.2818833440932437	-1.30407385619126	2.656484116033218	-2.895150398269218	-2.895150398268088	-0.3677653193033668	0.04516317529620955	-1.971943797955147	-0.5115221618667196	-2.648660783506496e-07	5.76287274384155e-06	4.201108980312179e-06	9.85634577449595e-07	3.140510030967252e-07	5.089689695056699e-06	-6.181235585674499e-09
1.52	-0.3139822842270382	-0.0347544485656364	0.6959595172299496	1.377788680188117	-0.2490341806790424	-0.02230485580586189	-0.3770613361474429	1.142048226566706	1.142048226566844	0.02347950980995583	0.1745304336654871	0.2913897658693485	0.07992663862498126	0.2643328811133713	0.09708272279449777	0.8295724290849233	-2.609857367130696	-0.06225113764143091	-0.4094703843711479	0.5334612689065815	-2.982197283041216	-2.98219728304137	-0.5058287998349513	-3.535724273838206e-05	-0.7930206944804171	-0.3061256422698384	-0.2139711429085076	0.002412721052873488	-0.01055462572293526	-0.3121808733286677	0.07742095733828232	0.03018427328487889	0.2166641862178024	-12.56182981455017	-9.631442356150865	-0.3268037076133741	-3.565284482151121	-609.8660748975016	-64.42094893048198	-2.157554264339375	1.458424601885201	1.006701884822035	-0.5532172180405298	-2.494620361647428	-0.2382786343366837	-1.142883216066694	2.65630882724067	-2.626550042346313	-2.626550042346308	-0.4479855844735218	-0.1029837243338566	-1.863498921114473	-0.4011621582528533	-2.223157723519051e-07	6.223729910930862e-06	4.113052056768522e-06	1.016978565126678e-06	3.420013596015342e-07	5.083080513321704e-06	5.753000908815391e-08
1.53	-0.3112666840879466	-0.03373331958278703	0.7042254215421643	1.351568580860568	-0.2496696505904457	-0.02646361889950783	-0.3715946558946933	1.112098491434597	1.112098491434505	0.01840253551880983	0.174530339740047	0.2833673280455178	0.07684450043891379	0.2787051124126945	0.1071383473200583	0.8233851137352955	-2.6337920043197	-0.06479849021261733	-0.422344100109224	0.5598325728449777	-3.007301449908706	-3.007301449908785	-0.5094903804969655	1.529905918708682e-05	-0.8112974566552251	-0.3101670073224952	-0.2072229702828674	0.002381696523156283	-0.010070068120045	-0.3050435016295117	0.07905570298521071	0.02955540998536832	0.2105580519397508	-11.56828940657316	-9.717998388330116	-0.1008760473013863	-4.050592738440927	-601.5565790825257	-63.6040821767292	-3.260955617884445	1.414321290380481	1.004496323965064	-0.6849085063273347	-2.287310555338457	-0.257199749241282	-1.368571632250993	2.621209857308809	-2.385142976303197	-2.385142976291976	-0.3129295543828977	0.05802490324706115	-1.784083555604414	-0.386921578708391	-1.654261509676121e-07	6.705898607918773e-06	3.873136913061766e-06	1.046808974906296e-06	3.736885540333445e-07	5.034051535632833e-06	1.405150321653186e-07
1.54	-0.3084098218565758	-0.03261173363717387	0.7124227687383019	1.32512025012957	-0.2503294412637069	-0.03075291032644737	-0.3658655288665251	1.081911156040331	1.081911156040028	0.01329140837156735	0.1745305392967814	0.2751672588619512	0.07372568902233256	0.2925852995690053	0.1171741153472554	0.8158610058695525	-2.65550364782117	-0.06711529001307297	-0.435576051030216	0.5859506239901694	-3.029717335470307	-3.029717335470312	-0.5126593710516775	2.333919276587871e-05	-0.8285469664276504	-0.3134602883726019	-0.2004747976572148	0.002350671993448691	-0.009585510517221233	-0.2979061299303548	0.08069044863214174	0.02892654668587151	0.204451917661711	-10.56182225578566	-9.827785196954625	0.1526986642962992	-4.640217805823372	-593.0835771123693	-62.84013732145301	-4.586042857591361	1.360015773282725	1.002730585149378	-0.8205757212635439	-2.050021624140604	-0.1921680801905254	-1.214530252649945	2.605658268599811	-2.088893781168464	-2.088893781168502	-0.3494675630130464	-0.111506958003158	-1.658048440637906	-0.2515453577428231	-6.976202728641071e-08	7.002020714559535e-06	3.267185949225326e-06	1.010527313761126e-06	4.356893988482213e-07	4.836651849765592e-06	2.411746115247614e-07
1.55	-0.3054165770940661	-0.03138995232752365	0.7205383390447357	1.298465638448671	-0.2510116563463171	-0.03517474146781691	-0.3598769565192979	1.051513214960628	1.051513214960539	0.008148612798725016	0.174530744277079	0.2667999357948438	0.07057707694005186	0.3059685248827586	0.1271699145530773	0.8070404794032272	-2.675039140985223	-0.06928802051389568	-0.4488213817896269	0.6116931040116148	-3.04940028453956	-3.049400284539611	-0.515868395822317	1.950704495522142e-05	-0.8447256937878193	-0.316139806874454	-0.1933741371119944	0.000981851596857698	-0.009245873973995011	-0.2916264013039671	0.08253188718729725	0.02892873588066482	0.1980536607336807	-9.486543087119825	-10.29710518762168	0.5474597375561681	-5.181703679075393	-585.0108461979346	-62.94575517025963	-6.139562663081779	1.313236125969824	0.9963369035996015	-0.9445602183033899	-1.848348953881087	-0.2245162272868774	-1.383632524161109	2.54793165229599	-1.837491966816111	-1.837491966823135	-0.3008830880614034	0.05504080552790968	-1.56871709231582	-0.2591347137901621	7.057706643253053e-08	7.083784793191637e-06	2.239498062196012e-06	8.980730491591383e-07	5.326168408435858e-07	4.468303304475453e-06	3.621983535572626e-07
1.56	-0.3022923480353086	-0.03006854656275524	0.7285593502647091	1.271627064677864	-0.2517145368723875	-0.03972984552409171	-0.3536330816151797	1.020932545090814	1.020932545090966	0.002974874347374496	0.1745308833655994	0.2582766390124132	0.06740507374927594	0.3187821588184441	0.1370990063708957	0.7969491885774699	-2.692296065803015	-0.07124837870507163	-0.462230634012014	0.6370111353682301	-3.066263093489311	-3.066263093489409	-0.5188479467518339	1.016084506113582e-05	-0.8597417094923648	-0.3181385100716543	-0.1862734765667582	-0.0003869687997169909	-0.008906237430788846	-0.2853466726775767	0.08437332574245705	0.02893092507548125	0.1916554038056645	-8.397155101062797	-10.78874980013338	0.9684542167482091	-5.836509312238405	-576.7280035004384	-63.12505768831502	-7.923271684820551	1.246097497669168	0.9893891075486972	-1.074728593149937	-1.594307954888367	-0.1496936182611474	-1.247314545245179	2.520768535633766	-1.524865757268223	-1.524865757268231	-0.3035727947885141	-0.1126097684198911	-1.425506109513203	-0.1153822968124495	3.097028055978257e-08	7.049458043313942e-06	2.6121875535346e-06	9.337126487700858e-07	4.599785269248721e-07	4.205669100961293e-06	3.456277129574441e-07
1.57	-0.2990430446626822	-0.02864833555620286	0.7364731038236413	1.244627966656419	-0.2524348117518645	-0.04442196106931714	-0.347138301731594	0.9901979889629259	0.9901979889630033	-0.002224146558449553	0.1745309857436521	0.2496095530851049	0.06421803862828253	0.3309741715501027	0.1469126618982869	0.7855992365980285	-2.70711461563222	-0.07277289567751187	-0.4761638240480795	0.6618322056420763	-3.080146825880989	-3.080146825881082	-0.5209941810692803	2.072801607848802e-05	-0.8734772801022725	-0.3191698036308576	-0.179005031536047	-0.0005774668211858704	-0.008743261758325563	-0.2794310696405695	0.08625706640818095	0.02779745937703849	0.1850455094500018	-7.385025896559998	-10.69232486453629	1.202805128772363	-6.205176388782952	-568.7171657803028	-62.14079760392909	-9.898304723740711	1.190095538386753	0.9730301336168635	-1.195469186958824	-1.364309259443582	-0.1501057301394712	-1.461999889663258	2.445880917166161	-1.244940748562148	-1.244940748561488	-0.1747623983992617	0.05822150272530289	-1.317578467536878	-0.08397288899965914	-2.335688548025747e-07	6.870017757799002e-06	4.735348767833049e-06	1.1544695786472e-06	1.753830181135624e-07	4.075177824667106e-06	1.570640940672277e-07
